# xmcd
#
# Track frame offsets: 
#        150
#        18018
#        36629
#        51075
#        68502
#        89020
#        106295
#        131260
#        148022
#        161868
#        177488
#        190624
#        203660
#        220348
#        236462
#        250540
#
# Disc length: 3575 seconds
#
# Revision: 2
# Processed by: cddbd v1.5.2PL0 Copyright (c) Steve Scherf et al.
# Submitted via: ExactAudioCopy v0.95b3
#
DISCID=dc0df510
DTITLE=Various Artist - Now That's What I Call Country Volume 3
DYEAR=2009
DGENRE=Country
TTITLE0=Kenny Chesney - Ain't Back Yet
TTITLE1=Lady Antebellum - Our Kind Of Love
TTITLE2=Josh Turner - Why Don't We Just Dance
TTITLE3=Zac Brown Band - Highway 20 Ride
TTITLE4=Brad Paisley - American Saturday Night
TTITLE5=Rascal Flatts - Unstoppable
TTITLE6=Keith Urban - 'Til Summer Comes Around
TTITLE7=George Strait - Living For The Night
TTITLE8=Jason Aldean - Crazy Town
TTITLE9=Chris Young - The Man I Want To Be
TTITLE10=Luke Bryan - Rain Is A Good Thing
TTITLE11=Easton Corbin - A Little More Country Than That
TTITLE12=Martina McBride - Wrong Baby Wrong Baby Wrong
TTITLE13=Dierks Bentley - Up On The Ridge
TTITLE14=Little Big Town - Little White Church
TTITLE15=Gary Allan - Get Off On The Pain
EXTD=
EXTT0=
EXTT1=
EXTT2=
EXTT3=
EXTT4=
EXTT5=
EXTT6=
EXTT7=
EXTT8=
EXTT9=
EXTT10=
EXTT11=
EXTT12=
EXTT13=
EXTT14=
EXTT15=
PLAYORDER=
